<?xml version="1.0" standalone="no"?>
<!DOCTYPE svg PUBLIC "-//W3C//DTD SVG 20010904//EN"
 "http://www.w3.org/TR/2001/REC-SVG-20010904/DTD/svg10.dtd">
<svg version="1.0" xmlns="http://www.w3.org/2000/svg"
 width="1000.000000pt" height="1000.000000pt" viewBox="0 0 1000.000000 1000.000000"
 preserveAspectRatio="xMidYMid meet">

<g transform="translate(0.000000,1000.000000) scale(0.100000,-0.100000)"
fill="#000000" stroke="none">
<path d="M4805 8804 c-16 -2 -84 -9 -150 -15 -724 -65 -1416 -357 -2000 -844
-343 -286 -614 -609 -845 -1005 -228 -393 -367 -763 -454 -1215 -83 -431 -87
-956 -11 -1400 93 -543 275 -1022 556 -1462 386 -605 960 -1103 1569 -1360
259 -110 562 -203 822 -254 290 -56 390 -64 773 -63 309 0 367 3 495 23 343
52 634 129 935 248 317 124 649 327 940 572 225 190 303 285 352 426 23 69 27
96 27 195 0 82 -5 132 -18 175 -45 149 -154 295 -277 368 -158 93 -350 117
-514 63 -107 -35 -149 -61 -315 -196 -198 -161 -294 -228 -450 -314 -505 -278
-1016 -372 -1580 -291 -403 59 -838 251 -1180 521 -114 91 -333 310 -408 410
-178 237 -320 492 -401 719 -49 141 -104 355 -133 520 -19 112 -23 165 -23
385 0 275 13 385 71 614 163 644 541 1180 1083 1534 244 160 487 265 786 341
132 33 269 51 477 61 170 8 208 13 275 35 141 48 252 131 331 250 49 72 78
146 133 339 48 167 190 332 370 427 32 18 59 36 59 40 0 5 -2 9 -3 9 -2 0 -74
18 -159 39 -309 80 -570 111 -888 109 -118 0 -228 -3 -245 -4z"/>
<path d="M6455 8361 c-117 -33 -240 -115 -321 -211 -73 -87 -134 -263 -134
-384 0 -191 101 -392 256 -506 120 -90 237 -130 378 -130 113 0 200 21 298 73
202 106 315 286 325 517 6 125 -10 207 -61 308 -86 171 -250 300 -431 338 -85
19 -237 16 -310 -5z"/>
<path d="M4860 6584 c-242 -35 -484 -134 -676 -277 -275 -205 -487 -509 -585
-837 -48 -161 -62 -268 -63 -460 0 -201 16 -315 69 -501 137 -474 526 -881
984 -1030 196 -64 288 -79 481 -79 180 0 287 16 442 66 264 86 446 201 653
415 203 210 317 422 407 759 21 78 23 107 23 345 0 215 -3 274 -18 343 -47
215 -148 451 -263 614 -75 107 -236 273 -343 353 -319 240 -724 345 -1111 289z"/>
</g>
</svg>
